<svg xmlns:xlink="http://www.w3.org/1999/xlink" xmlns="http://www.w3.org/2000/svg" class="css-ze2te4 css-qd6ojx" viewBox="0 0 53.030303030303024 39.9358065031893" width="110"  height="83" ><g transform="translate(-0.19713867924917114, -6.74492010437462) scale(0.534251137732769)" class="css-1e98oqk" fill="#FFFFFF"><g xmlns="http://www.w3.org/2000/svg" fill="#FFFFFF"><path d="M24.883,87.375l-1.269-4.736l8.647-2.316l1.89,7.053h4.485l-0.172-0.642l39.892-10.689l3.036,11.331h4.484L84.11,80.78   l8.647-2.316l2.389,8.911h4.484l-20.03-74.75h-4.484l1.048,3.91l-8.648,2.317l-1.668-6.227h-4.484l0.548,2.047L22.019,25.361   l-3.412-12.736h-4.484l1.545,5.768l-8.647,2.317l-2.167-8.084H0.369l20.029,74.75H24.883z M22.269,77.618l-2.467-9.206l8.648-2.316   l2.466,9.205L22.269,77.618z M91.412,73.443l-8.646,2.316l-2.468-9.206l8.648-2.318L91.412,73.443z M87.601,59.217l-8.647,2.316   l-2.467-9.207l8.647-2.316L87.601,59.217z M83.788,44.989l-8.646,2.317L72.674,38.1l8.648-2.317L83.788,44.989z M77.51,21.555   l2.466,9.206l-8.647,2.317l-2.467-9.206L77.51,21.555z M64.901,25.831l10.465,39.055L35.474,75.573L25.009,36.52L64.901,25.831z    M8.366,25.731l8.647-2.317l2.467,9.206l-8.648,2.317L8.366,25.731z M12.177,39.958l8.648-2.317l2.467,9.207l-8.647,2.317   L12.177,39.958z M15.99,54.186l8.647-2.318l2.467,9.207l-8.648,2.316L15.99,54.186z" fill="#FFFFFF"></path></g></g></svg>